:SAMPLES-PER-SECOND 30
:FRAME-RANGE 1-3358
:FULLY-SPECIFIED
:DEGREES
2939
root  -39.8869 39.3316 10.9597 165.019 84.8175 162.068
RightUpLeg  -1.49647 -4.24116 -4.06834
RightLeg  14.789 9.46268 2.04847
RightFoot  -15.8704 -0.00355602 2.62804
RightToes  -1.11029e-010 1.2921e-014 -6.02303e-014
Spine  -3.49045 -1.4494 3.44769
Spine1  7.12816 -1.209 -1.78165
HEad  6.80319 11.4083 -3.59764
LeftShoulder1  0.969351 -0.405653 -19.8945
LeftArm  12.027 -3.90418 -44.1089
LeftForeArm  17.0557 -35.7945 -7.07396
LeftHand  -0.151028 3.45963 8.34286
RightShoulder  1.50091 1.60062 24.4639
RightArm  1.51324 5.89668 50.4419
RightForeArm  26.9575 26.6104 4.27439
RightHand  0.0267827 -5.72273 -14.9346
LeftUpLeg  -18.3993 -8.91618 -0.761671
LeftLeg  16.7344 9.2959 3.54747
LeftFoot  -4.41536 0.122802 -1.5906
LeftToes  -1.90334e-010 -8.83595e-011 4.99953e-011
2940
root  -39.5554 39.211 10.8936 163.271 85.7223 161.052
RightUpLeg  -0.73137 -3.00607 -3.96914
RightLeg  15.8209 9.29766 2.18625
RightFoot  -17.0543 0.0204854 2.72511
RightToes  -1.11029e-010 1.2921e-014 -6.02303e-014
Spine  -3.65964 -1.51743 2.86806
Spine1  7.22085 -1.25965 -1.72982
HEad  8.46906 11.5671 -2.58881
LeftShoulder1  0.989919 -0.558596 -19.3565
LeftArm  9.34959 -5.85747 -43.6908
LeftForeArm  15.9704 -37.1933 -7.53467
LeftHand  -0.173603 2.98271 7.86266
RightShoulder  1.51952 1.64565 24.5689
RightArm  -0.290018 7.98158 50.3859
RightForeArm  26.0705 28.5185 4.74545
RightHand  -0.00967342 -5.44912 -13.6272
LeftUpLeg  -18.0085 -9.49748 -0.502618
LeftLeg  18.9454 10.5017 4.30833
LeftFoot  -5.8895 0.177848 -2.99255
LeftToes  -1.90334e-010 -8.83595e-011 4.99953e-011
2941
root  -39.2158 39.1088 10.834 158.447 86.2372 156.824
RightUpLeg  -0.334424 -0.130015 -3.83264
RightLeg  17.306 6.99297 1.9486
RightFoot  -18.0253 0.0457503 2.87375
RightToes  -1.11029e-010 1.2921e-014 -6.02303e-014
Spine  -3.96415 -1.52765 2.0979
Spine1  7.35647 -1.15483 -2.1399
HEad  10.4184 10.8593 -1.34593
LeftShoulder1  1.0006 -0.69121 -18.7293
LeftArm  8.11923 -8.60844 -43.3586
LeftForeArm  18.804 -38.1207 -7.62745
LeftHand  -0.145519 3.54473 8.35875
RightShoulder  1.57353 1.85629 24.3603
RightArm  -2.13294 9.89935 50.8291
RightForeArm  26.8546 30.1937 5.08749
RightHand  -0.00963093 -5.45228 -13.4171
LeftUpLeg  -17.3576 -7.86811 -0.860727
LeftLeg  20.006 9.21122 4.02329
LeftFoot  -5.97498 0.176339 -2.99716
LeftToes  -1.90334e-010 -8.83595e-011 4.99953e-011
2942
root  -38.8821 38.9957 10.7746 143.495 86.619 142.352
RightUpLeg  -0.53895 2.53953 -4.19907
RightLeg  19.737 5.07919 1.81091
RightFoot  -19.1207 0.0669212 2.88861
RightToes  -1.11029e-010 1.2921e-014 -6.02303e-014
Spine  -4.42682 -1.37733 0.805891
Spine1  7.78824 -0.81099 -3.16264
HEad  12.0407 10.0167 -0.506957
LeftShoulder1  1.03162 -0.904303 -18.1576
LeftArm  6.78074 -11.3268 -43.0157
LeftForeArm  21.9388 -38.7697 -7.62108
LeftHand  -0.133979 3.86281 9.16797
RightShoulder  1.64661 2.16516 23.9646
RightArm  -2.13333 11.9634 51.0917
RightForeArm  30.9411 32.645 5.44453
RightHand  0.0757997 -6.0914 -15.2803
LeftUpLeg  -16.6207 -6.67191 -1.64194
LeftLeg  20.8316 8.77746 4.00313
LeftFoot  -6.61582 0.168619 -3.12402
LeftToes  -1.90334e-010 -8.83595e-011 4.99953e-011
